<?xml version="1.0" encoding="UTF-8"?>
<svg version="1.1" xmlns="http://www.w3.org/2000/svg" width="498" height="512">
<path d="M0 0 C164.34 0 328.68 0 498 0 C498 168.96 498 337.92 498 512 C333.66 512 169.32 512 0 512 C0 343.04 0 174.08 0 0 Z " fill="#000000" transform="translate(0,0)"/>
<path d="M0 0 C164.34 0 328.68 0 498 0 C498 76.56 498 153.12 498 232 C497.67 232 497.34 232 497 232 C496.94054199 231.43418213 496.88108398 230.86836426 496.81982422 230.28540039 C489.72379153 165.0424111 457.75998933 102.12179912 406.53125 60.25390625 C402.44722669 57.03641499 398.25666114 53.98412601 394 51 C393.3611084 50.54834473 392.7222168 50.09668945 392.06396484 49.63134766 C364.60462295 30.36101372 333.72312103 17.27180467 301 10 C299.50127014 9.64857369 298.00257369 9.29700488 296.50390625 8.9453125 C235.7558625 -4.97453812 168.84082352 7.69242901 116.02734375 40.3984375 C91.96390141 55.7475225 69.6456289 74.48022885 52 97 C51.22140625 97.96164063 50.4428125 98.92328125 49.640625 99.9140625 C26.03494251 129.60910895 4.12362627 169.1804123 3.6875 207.9375 C3.65849609 208.79279297 3.62949219 209.64808594 3.59960938 210.52929688 C3.53988215 216.55255768 4.64147919 220.95409146 8 226 C9.91725994 228.33152308 9.91725994 228.33152308 13.25 228.375 C20.29175014 227.67082499 24.45946194 222.7745846 28.9375 217.75 C29.46545166 217.16935791 29.99340332 216.58871582 30.53735352 215.99047852 C33.22922685 213.01960739 35.85507268 210.00413245 38.4375 206.9375 C47.36720304 196.67049843 58.18684314 188.17544212 69 180 C69.58475098 179.55301758 70.16950195 179.10603516 70.77197266 178.64550781 C89.18867238 164.60170001 109.2532325 152.0207625 130.40625 142.52734375 C131.26476562 142.14022217 132.12328125 141.75310059 133.0078125 141.35424805 C134.60779492 140.64532167 136.21674841 139.95612416 137.8359375 139.29223633 C144.19149309 136.50107874 148.18782987 132.4413022 150.83398438 125.95605469 C151.47547542 123.9003226 152.00316579 121.84513362 152.5 119.75 C156.78651837 103.76663808 164.39173179 90.50636736 179 82 C192.90925882 74.74991248 209.10609887 73.37487583 224.125 78.0625 C239.68189313 84.12561228 250.64968954 93.99977404 258 109 C264.27203813 124.28809295 262.94687071 140.03127939 256.71484375 155.109375 C249.36438738 169.60553965 237.30693299 178.99000055 222 184 C221.319375 184.22558594 220.63875 184.45117188 219.9375 184.68359375 C203.62564254 189.16317582 188.68134359 184.92557981 174.3828125 177.03515625 C171 175 171 175 168.375 172.796875 C164.85997398 170.13748031 162.25155976 170.12693137 157.9453125 170.31640625 C152.71223312 171.53098038 149.37199445 174.85113702 145.56884766 178.50195312 C143.84919516 180.14399915 142.09051788 181.7364046 140.32421875 183.328125 C128.90793079 193.69109013 118.86427674 204.85488573 109.48583984 217.07275391 C107.93612669 219.08284849 106.36953266 221.07895567 104.80078125 223.07421875 C70.33999031 267.15066549 41.71384617 325.02163497 47.21826172 382.27001953 C47.76471541 385.98763328 48.74319853 389.46587427 50 393 C50.54527344 394.56041016 50.54527344 394.56041016 51.1015625 396.15234375 C55.32343464 407.17006814 60.45314255 413.72657127 71 419 C79.97350793 420.17970686 87.44221706 417.09547626 94.625 411.875 C102.14572152 405.60334936 107.15496139 397.88369831 112.125 389.5625 C120.94207844 374.80577291 131.14135631 361.42334101 143 349 C144.17526573 347.65328959 145.34285528 346.29981222 146.5 344.9375 C152.79126237 337.69575915 159.70631075 330.93528964 167.0078125 324.71875 C168.40130591 323.51652039 169.7694189 322.28452559 171.1171875 321.03125 C178.95158723 313.75079772 187.44497932 307.39689273 196 301 C196.99386719 300.25218262 196.99386719 300.25218262 198.0078125 299.48925781 C206.21211356 293.32357609 214.55310718 287.48100476 223.27587891 282.07080078 C224.943927 281.03482529 226.60300219 279.98444532 228.26171875 278.93359375 C252.88547396 263.55179723 282.96284617 247.09230247 311.6875 241.25 C317.0660947 239.22034162 320.57974279 236.66785993 324 232 C325.82225437 227.94901659 327.13209361 223.7348624 328.47875977 219.50732422 C333.3416233 204.34440177 342.33401179 194.14134123 356.36328125 186.765625 C369.40636836 180.2665041 383.07367416 178.55688055 396.9375 183.1875 C412.86915913 189.18274699 424.96365232 198.95822583 432.3125 214.625 C438.11958925 229.00564591 437.24151613 243.55743234 432 258 C425.15365746 273.66569447 413.84234058 282.54697418 398.234375 288.84375 C394.41771158 290.20816108 391.02226176 290.95227825 387 291 C385.80632812 291.06058594 384.61265625 291.12117188 383.3828125 291.18359375 C371.17120023 291.65372319 361.66265606 289.20581656 351.3515625 282.3671875 C343.9197137 278.04634517 335.34752087 277.79402403 327 279 C321.86126178 280.55737703 317.50359294 283.1366418 313 286 C312.1121582 286.55848633 311.22431641 287.11697266 310.30957031 287.69238281 C293.53080358 298.34460085 278.12198018 310.02258337 263.609375 323.57421875 C261.36126977 325.66414891 259.07849089 327.68842739 256.75 329.6875 C249.93340451 335.63269565 243.99818687 342.03929242 238.34375 349.09765625 C235.99137059 352.01068608 233.56224329 354.84533496 231.125 357.6875 C208.79640609 384.4818127 177.3583812 431.17689034 178.5625 466.75 C178.57861328 467.47316406 178.59472656 468.19632812 178.61132812 468.94140625 C178.95071284 478.12962671 181.0613892 484.14685013 187.43359375 490.859375 C203.02037405 503.86022067 224.58813998 505.43009753 244 505.375 C244.73000214 505.37445618 245.46000427 505.37391235 246.21212769 505.37335205 C306.70262931 505.16881812 368.01647739 483.26577244 412.734375 442.08203125 C414.80892036 440.1755956 416.92265931 438.3323439 419.0625 436.5 C426.31004033 430.15476388 432.74128362 423.32828115 438.75390625 415.8046875 C440.21686491 413.97789738 441.70296955 412.16933051 443.21484375 410.3828125 C453.40841322 398.30818012 461.67244237 384.97125113 469 371 C469.4021875 370.23510254 469.804375 369.47020508 470.21875 368.68212891 C477.82371248 354.00395717 483.20582266 338.79905302 488 323 C488.35167236 321.85869629 488.35167236 321.85869629 488.71044922 320.69433594 C493.99801294 303.16120629 495.80306936 284.20654021 497 266 C497.33 266 497.66 266 498 266 C498 347.18 498 428.36 498 512 C333.66 512 169.32 512 0 512 C0 343.04 0 174.08 0 0 Z " fill="#FEFEFE" transform="translate(0,0)"/>
</svg>
