<?xml version="1.0" encoding="UTF-8"?>
<svg version="1.1" xmlns="http://www.w3.org/2000/svg" width="242" height="244">
<path d="M0 0 C0.6657605 0.00209473 1.331521 0.00418945 2.01745605 0.00634766 C36.86674625 0.23025886 66.74030925 14.35465698 91.28125 38.76953125 C112.31009867 61.09417165 123.46780246 90.45749704 123.375 120.9375 C123.37412384 121.64176117 123.37324768 122.34602234 123.37234497 123.07162476 C123.32390575 134.9110756 122.40839877 146.11257151 119 157.5 C118.64591064 158.68674316 118.64591064 158.68674316 118.28466797 159.89746094 C112.5638722 178.31761186 103.096523 193.4574312 90 207.5 C88.96939453 208.63501953 88.96939453 208.63501953 87.91796875 209.79296875 C72.24338513 226.32552958 51.00913873 237.21470186 29 242.5 C27.8102356 242.78605103 27.8102356 242.78605103 26.59643555 243.07788086 C18.87142357 244.70814283 11.16512905 244.90574188 3.30297852 244.92553711 C1.06871824 244.9374668 -1.1628004 244.98683984 -3.39648438 245.03710938 C-12.29322509 245.13922069 -20.28541766 244.50297876 -28 239.5 C-32.85857447 234.02354787 -33.48182649 230.55006937 -33.39453125 223.3125 C-30.70017294 197.27592864 -8.805393 168.69544655 10.6171875 152.37890625 C36.04986453 132.32461502 36.04986453 132.32461502 45.70703125 132.95703125 C48.45123784 133.60685189 50.6759765 134.72040628 53.1875 136 C60.25699181 139.4851006 67.89386814 140.0046282 75.4921875 137.765625 C82.00117961 134.7690324 87.12643686 129.44434344 90.1875 123 C92.13333975 114.61792107 91.862554 107.2438445 87.546875 99.69140625 C83.38846482 93.80032516 78.05984571 90.07761915 71 88.5 C63.88355744 87.58665978 57.07057662 88.85051226 51.01953125 92.7890625 C44.99066727 97.59672802 42.15087632 103.35473505 39.90625 110.60546875 C37.93496243 114.7264794 35.18727432 116.58245297 31.015625 118.140625 C29.42974349 118.68489699 27.84101648 119.22092652 26.25 119.75 C17.07325881 122.97023219 8.55600045 126.89915306 0 131.5 C-0.59087402 131.81018066 -1.18174805 132.12036133 -1.79052734 132.43994141 C-16.79693878 140.3466352 -29.83321595 150.75744133 -42 162.5 C-42.93457031 163.37140625 -43.86914062 164.2428125 -44.83203125 165.140625 C-52.8227899 172.78493117 -58.84764639 181.30442478 -64.96875 190.4375 C-72.32211538 201.27403846 -72.32211538 201.27403846 -79 203.5 C-83.05573664 203.88261666 -85.47786091 203.74571251 -89.1875 202 C-95.82762401 196.09766755 -97.3066657 187.95895633 -98.22265625 179.42578125 C-99.53053308 149.57207095 -80.77375835 118.45824617 -61.51660156 97.14111328 C-58.74985815 94.14722255 -55.92614432 91.21369105 -53.0625 88.3125 C-52.51875732 87.75933105 -51.97501465 87.20616211 -51.41479492 86.63623047 C-46.4581692 81.72053031 -46.4581692 81.72053031 -43 80.5 C-38.95997345 80.59181879 -36.45938244 81.73889908 -33.1875 83.9375 C-27.35032561 87.74772389 -21.9182756 89.05127811 -15 87.9375 C-6.27505258 85.7698112 -0.82388198 82.28554122 3.90625 74.5859375 C7.22675431 68.25326143 7.09766746 59.89066983 5.38671875 53.046875 C2.43861506 46.4493566 -3.18119045 42.18044415 -9.25 38.5625 C-16.3671419 36.54597646 -24.3318836 36.31552753 -31.19140625 39.41015625 C-38.91928172 44.06691058 -41.35985855 50.17726837 -44 58.5 C-47.11491028 66.28727571 -53.45044364 68.83275967 -60.625 72.25 C-77.51827504 80.53416499 -93.86212483 92.32818206 -105.875 106.9375 C-108 109.5 -108 109.5 -110 110.5 C-113 110.75 -113 110.75 -116 110.5 C-119.72702172 104.90946742 -118.76148553 97.01625381 -118 90.5 C-113.66185599 69.05781947 -100.69239321 51.12263784 -86 35.5 C-85.46246094 34.89800781 -84.92492187 34.29601563 -84.37109375 33.67578125 C-72.43066743 20.83757851 -55.31479643 11.69986384 -38.875 6.125 C-38.20823242 5.89844727 -37.54146484 5.67189453 -36.85449219 5.43847656 C-24.7081261 1.59029483 -12.7089581 -0.06485817 0 0 Z " fill="#FECB07" transform="translate(119,-0.5)"/>
</svg>
