<?xml version="1.0" encoding="UTF-8"?>
<svg version="1.1" xmlns="http://www.w3.org/2000/svg" width="680" height="680">
<path d="M0 0 C0 0.66 0 1.32 0 2 C0.57878906 2.25394531 1.15757812 2.50789063 1.75390625 2.76953125 C11.64344308 8.18727751 17.40330402 19.2021982 22 29 C22.556875 30.155 23.11375 31.31 23.6875 32.5 C29.10541695 46.94777854 28.67347261 64.41063768 24 79 C23.74476563 79.84304688 23.48953125 80.68609375 23.2265625 81.5546875 C16.90400401 99.71029124 2.16932647 112.68170271 -14.640625 120.921875 C-26.81889464 126.48677967 -42.62252512 129.43326639 -55.609375 125.13671875 C-57.8125 124.125 -57.8125 124.125 -61 122 C-63.71058404 113.86824789 -61.52598827 106.54141968 -58 99 C-50.34226463 84.3872391 -38.20594683 69.62783783 -22.95703125 62.546875 C-19.4050263 61.55429877 -16.56417399 62.18711821 -13 63 C-12.67 63.33 -12.34 63.66 -12 64 C-6.7494985 64.4912279 -1.76666799 64.82925232 3.0625 62.5625 C6.13345085 58.50091984 8.06072427 54.02517271 7.95703125 48.859375 C7.6913755 46.75449641 7.6913755 46.75449641 7 44 C6.34 44 5.68 44 5 44 C3.375 42.625 3.375 42.625 2 41 C2 40.34 2 39.68 2 39 C-5.59873164 37.47533101 -5.59873164 37.47533101 -12.5625 39.9375 C-13.366875 40.618125 -14.17125 41.29875 -15 42 C-15.66 42 -16.32 42 -17 42 C-17.18175781 42.61488281 -17.36351563 43.22976563 -17.55078125 43.86328125 C-17.80214844 44.67152344 -18.05351563 45.47976563 -18.3125 46.3125 C-18.55613281 47.11300781 -18.79976563 47.91351563 -19.05078125 48.73828125 C-20.11935464 51.28438822 -20.78228249 52.35655461 -23 54 C-25.45312153 54.97378009 -27.87678398 55.85066061 -30.375 56.6875 C-41.90218506 60.78503876 -51.58410089 67.21841869 -61 75 C-61.90298828 75.70189453 -61.90298828 75.70189453 -62.82421875 76.41796875 C-70.09818085 82.25348441 -75.7039575 89.76591855 -80 98 C-80.66 98 -81.32 98 -82 98 C-82 98.66 -82 99.32 -82 100 C-84.27058938 102.27058938 -85.75397273 102.95812302 -88.9375 103.5 C-92.9922693 102.83799685 -94.38202631 101.06676918 -97 98 C-97.33 97.67 -97.66 97.34 -98 97 C-100.64341265 78.90730895 -95.33249057 64.75035453 -85 50 C-84.51015625 49.26394531 -84.0203125 48.52789062 -83.515625 47.76953125 C-82.40654167 46.13526434 -81.21257455 44.55902442 -80 43 C-79.34 43 -78.68 43 -78 43 C-77.62294922 42.12794922 -77.62294922 42.12794922 -77.23828125 41.23828125 C-75.84219277 38.71475223 -74.31913782 37.12349993 -72.1875 35.1875 C-71.52105469 34.56230469 -70.85460937 33.93710937 -70.16796875 33.29296875 C-68 32 -68 32 -65.4453125 32.19921875 C-63 33 -63 33 -59.6875 34.625 C-55.03441207 36.36004974 -52.82437139 35.94905667 -48 35 C-47.21625 34.9175 -46.4325 34.835 -45.625 34.75 C-43.7413348 34.08862055 -43.7413348 34.08862055 -42.875 31.6875 C-42.58625 30.800625 -42.2975 29.91375 -42 29 C-41.608125 28.38125 -41.21625 27.7625 -40.8125 27.125 C-39.25311526 23.04660914 -40.51027223 19.23872318 -42.0625 15.3125 C-44.83460848 12.00385439 -47.88105731 10.26445483 -52 9 C-55.70054409 9.0636079 -55.70054409 9.0636079 -59 10 C-59.804375 10.185625 -60.60875 10.37125 -61.4375 10.5625 C-62.2109375 10.7790625 -62.2109375 10.7790625 -63 11 C-63 11.66 -63 12.32 -63 13 C-63.66 13 -64.32 13 -65 13 C-65.18175781 13.68707031 -65.36351562 14.37414062 -65.55078125 15.08203125 C-65.92783203 16.43361328 -65.92783203 16.43361328 -66.3125 17.8125 C-66.55613281 18.70582031 -66.79976562 19.59914063 -67.05078125 20.51953125 C-68.78505631 25.0514846 -71.69391625 26.54468676 -75.9375 28.625 C-76.79214844 29.05039062 -77.64679688 29.47578125 -78.52734375 29.9140625 C-80.69624961 30.86659936 -82.68848543 31.51731714 -85 32 C-85 32.66 -85 33.32 -85 34 C-89.38461538 37 -89.38461538 37 -92 37 C-92 37.66 -92 38.32 -92 39 C-93.609375 40.5859375 -93.609375 40.5859375 -95.75 42.375 C-98.07109082 44.3289587 -100.15694476 46.1748813 -102.1875 48.4375 C-104 50 -104 50 -106.6875 50.3125 C-109 50 -109 50 -110 49 C-111.73754998 36.97536433 -107.55872814 26.74347709 -100.9296875 16.9375 C-99.03981368 14.52306044 -97.09041786 12.24163958 -95 10 C-94.175 9.113125 -93.35 8.22625 -92.5 7.3125 C-91.2625 6.1678125 -91.2625 6.1678125 -90 5 C-89.24783203 4.22269531 -89.24783203 4.22269531 -88.48046875 3.4296875 C-84.1048717 -0.82198196 -79.34856049 -3.60045788 -73.9375 -6.3125 C-73.26485107 -6.64999268 -72.59220215 -6.98748535 -71.89916992 -7.33520508 C-49.55020708 -18.14216779 -19.9399316 -14.35392239 0 0 Z " fill="#FEC40D" transform="translate(141,284)"/>
<path d="M0 0 C9.6525 -0.1546875 9.6525 -0.1546875 19.5 -0.3125 C21.51544922 -0.35802002 23.53089844 -0.40354004 25.60742188 -0.45043945 C27.22784772 -0.46505996 28.84829211 -0.47779692 30.46875 -0.48828125 C31.29149414 -0.51386108 32.11423828 -0.53944092 32.96191406 -0.5657959 C39.85227114 -0.57092876 44.57988583 1.69203024 49.52868652 6.4785614 C54.49038953 12.08567044 55.40008961 17.08721592 55.25390625 24.34765625 C54.71611631 29.96549265 51.66291224 33.8930984 48 38 C46.68103201 39.01887252 45.34971888 40.0222287 44 41 C45.20487574 43.29354519 46.41307846 45.58517797 47.625 47.875 C47.98529297 48.55667236 48.34558594 49.23834473 48.71679688 49.94067383 C51.27460396 54.7410892 54.004961 59.38529899 56.96875 63.94921875 C58 66 58 66 58 70 C51.4 70 44.8 70 38 70 C36.205625 66.90625 36.205625 66.90625 34.375 63.75 C33.78041992 62.72724976 33.78041992 62.72724976 33.17382812 61.68383789 C30.30285454 56.6796097 27.8764477 51.54183513 25.6171875 46.23046875 C23.85783939 43.2547269 23.85783939 43.2547269 18 43 C18 51.91 18 60.82 18 70 C12.06 70 6.12 70 0 70 C0 46.9 0 23.8 0 0 Z M18 15 C18 19.62 18 24.24 18 29 C20.8153125 29.0928125 20.8153125 29.0928125 23.6875 29.1875 C25.27111328 29.23970703 25.27111328 29.23970703 26.88671875 29.29296875 C31.34076628 28.87383002 33.88501354 27.11498646 37 24 C36.81250221 21.06253463 36.527423 18.82770763 34.9296875 16.3203125 C31.93115451 14.26868466 28.80605128 14.68528385 25.3125 14.8125 C24.61060547 14.82603516 23.90871094 14.83957031 23.18554688 14.85351562 C21.45670171 14.88879818 19.72825235 14.94260417 18 15 Z " fill="#034DA0" transform="translate(307,306)"/>
<path d="M0 0 C5.94 0 11.88 0 18 0 C18.33 7.59 18.66 15.18 19 23 C19.99 21.68 20.98 20.36 22 19 C22.66 19 23.32 19 24 19 C24.27255615 18.41049561 24.5451123 17.82099121 24.82592773 17.21362305 C25.97082652 15.05500436 27.18714865 13.42115756 28.78515625 11.58203125 C29.58083008 10.66067383 29.58083008 10.66067383 30.39257812 9.72070312 C30.94365234 9.09099609 31.49472656 8.46128906 32.0625 7.8125 C32.61744141 7.17119141 33.17238281 6.52988281 33.74414062 5.86914062 C37.74020337 1.25979663 37.74020337 1.25979663 39 0 C40.63472882 -0.08700342 42.27314055 -0.10701063 43.91015625 -0.09765625 C45.39418945 -0.09282227 45.39418945 -0.09282227 46.90820312 -0.08789062 C47.94912109 -0.07951172 48.99003906 -0.07113281 50.0625 -0.0625 C51.62967773 -0.05573242 51.62967773 -0.05573242 53.22851562 -0.04882812 C55.8190666 -0.03699913 58.40950559 -0.02051689 61 0 C59.67929739 3.58307211 58.43996497 5.77978507 55.63671875 8.40625 C53.4063844 10.57803142 51.33708187 12.87810576 49.25 15.1875 C48.08210938 16.47720703 48.08210938 16.47720703 46.890625 17.79296875 C44.97415522 19.84981229 44.97415522 19.84981229 44 22 C43.34 22 42.68 22 42 22 C41.505 23.485 41.505 23.485 41 25 C40.34 25 39.68 25 39 25 C39 25.66 39 26.32 39 27 C38.34 27 37.68 27 37 27 C37 27.66 37 28.32 37 29 C37.66 29 38.32 29 39 29 C39.53625 29.969375 40.0725 30.93875 40.625 31.9375 C42.80157337 35.78173569 45.28084523 39.37783037 47.828125 42.984375 C49 45 49 45 49 48 C49.66 48 50.32 48 51 48 C52.11328125 49.37353516 52.11328125 49.37353516 53.3125 51.2890625 C53.74820313 51.98386719 54.18390625 52.67867188 54.6328125 53.39453125 C55.30957031 54.49861328 55.30957031 54.49861328 56 55.625 C56.45117188 56.33785156 56.90234375 57.05070312 57.3671875 57.78515625 C59.83173818 61.75906193 61.73816617 65.4545304 63 70 C56.07620163 70.79319545 48.85171202 71.59154488 42 70 C38.23798943 66.8319911 36.63925089 63.40667509 34.82568359 58.8828125 C33.40609721 55.645719 31.42581513 52.76636611 29.5 49.8125 C26 44.24615385 26 44.24615385 26 42 C25.38125 42.66 24.7625 43.32 24.125 44 C22 46 22 46 20 46 C19.04831317 48.85506049 18.8099054 50.90937282 18.68359375 53.88671875 C18.64169922 54.82451172 18.59980469 55.76230469 18.55664062 56.72851562 C18.51732422 57.70498047 18.47800781 58.68144531 18.4375 59.6875 C18.39431641 60.67556641 18.35113281 61.66363281 18.30664062 62.68164062 C18.20058458 65.12092972 18.09979026 67.56044654 18 70 C12.06 70 6.12 70 0 70 C0 46.9 0 23.8 0 0 Z " fill="#034DA0" transform="translate(369,306)"/>
<path d="M0 0 C16.5 0 33 0 50 0 C50 4.95 50 9.9 50 15 C39.11 15 28.22 15 17 15 C17 18.63 17 22.26 17 26 C26.24 26 35.48 26 45 26 C45 31.28 45 36.56 45 42 C35.76 42 26.52 42 17 42 C17 45.96 17 49.92 17 54 C27.89 54 38.78 54 50 54 C50 59.28 50 64.56 50 70 C33.5 70 17 70 0 70 C0 46.9 0 23.8 0 0 Z " fill="#044DA0" transform="translate(493,306)"/>
<path d="M0 0 C5.94 0 11.88 0 18 0 C18.01981934 1.43311523 18.03963867 2.86623047 18.06005859 4.34277344 C18.13611059 9.65805685 18.22482895 14.97306636 18.31738281 20.28808594 C18.35567417 22.5888122 18.39052674 24.88959835 18.421875 27.19042969 C18.4675217 30.49696262 18.52551747 33.80308312 18.5859375 37.109375 C18.59748871 38.13867126 18.60903992 39.16796753 18.62094116 40.22845459 C18.64081085 41.18914856 18.66068054 42.14984253 18.68115234 43.13964844 C18.69447601 43.98348083 18.70779968 44.82731323 18.7215271 45.69671631 C19.02728374 48.22566721 19.65616389 49.8451435 21 52 C25.4970818 54.86177933 30.0021557 53.80575268 35 53 C35 52.34 35 51.68 35 51 C35.66 51 36.32 51 37 51 C37.33 34.17 37.66 17.34 38 0 C43.94 0 49.88 0 56 0 C56.04955879 6.85016839 56.08579503 13.70023163 56.10986328 20.55053711 C56.11990049 22.87933165 56.13353314 25.20811366 56.15087891 27.53686523 C56.17522727 30.89049379 56.18650615 34.24395521 56.1953125 37.59765625 C56.20563507 38.63334244 56.21595764 39.66902863 56.22659302 40.73609924 C56.22788134 49.09813457 55.29176438 55.19630294 50 62 C43.6054842 68.21181534 36.7402503 70.38888281 27.9375 70.4375 C19.28164181 70.30990011 12.86724882 68.32211784 6 63 C6 62.34 6 61.68 6 61 C5.34 61 4.68 61 4 61 C0.51160335 56.11624468 -0.12813462 51.63825279 -0.11352539 45.75073242 C-0.11341209 44.21971138 -0.11341209 44.21971138 -0.11329651 42.65776062 C-0.10813522 41.5680043 -0.10297394 40.47824799 -0.09765625 39.35546875 C-0.0962413 38.2305452 -0.09482635 37.10562164 -0.09336853 35.9466095 C-0.08777931 32.36021241 -0.07522872 28.77387816 -0.0625 25.1875 C-0.05748361 22.75325611 -0.05292094 20.31901124 -0.04882812 17.88476562 C-0.03781339 11.92315294 -0.02055611 5.96158712 0 0 Z " fill="#044D9F" transform="translate(244,306)"/>
<path d="M0 0 C7.57686801 5.68985336 9.48719594 11.92317565 11 21 C4.73 21 -1.54 21 -8 21 C-8.99 18.69 -9.98 16.38 -11 14 C-14.89846184 11.73517931 -19.0514065 11.80676799 -23.375 12.6875 C-26.75278872 14.37639436 -28.30865291 15.68363432 -30.05859375 19.015625 C-31.37324828 23.1832435 -31.32922093 27.09340158 -31.3125 31.4375 C-31.32861328 32.27087891 -31.34472656 33.10425781 -31.36132812 33.96289062 C-31.36535674 39.05909311 -30.84903957 42.60183726 -28 47 C-24.72712679 49.82657232 -22.7426591 50.90879625 -18.4375 51.4375 C-14.73493201 50.96626407 -12.86476744 50.37366445 -10 48 C-9.34 46.35 -8.68 44.7 -8 43 C-1.73 43 4.54 43 11 43 C8.94075285 52.2666122 7.09422274 58.77402703 -1.06640625 63.96875 C-9.1086495 68.2579464 -17.8733471 69.68030565 -26.77734375 67.23828125 C-31.5804388 65.41093832 -35.96318693 63.18695769 -40 60 C-40 59.34 -40 58.68 -40 58 C-40.66 58 -41.32 58 -42 58 C-43.4375 56.0234375 -43.4375 56.0234375 -45 53.375 C-45.515625 52.51648438 -46.03125 51.65796875 -46.5625 50.7734375 C-49.90387427 44.32676432 -50.33774631 38.82210721 -50.3125 31.6875 C-50.32861328 30.78837891 -50.34472656 29.88925781 -50.36132812 28.96289062 C-50.36846889 19.08721297 -47.78997966 11.26405482 -41 4 C-30.3296141 -5.78118707 -12.51799261 -7.82951936 0 0 Z " fill="#034DA0" transform="translate(477,309)"/>
<path d="M0 0 C17.82 0 35.64 0 54 0 C54 4.95 54 9.9 54 15 C48.06 15 42.12 15 36 15 C36 33.15 36 51.3 36 70 C30.06 70 24.12 70 18 70 C18 51.85 18 33.7 18 15 C12.06 15 6.12 15 0 15 C0 10.05 0 5.1 0 0 Z " fill="#044D9F" transform="translate(184,306)"/>
<path d="M0 0 C5.94 0 11.88 0 18 0 C18 17.82 18 35.64 18 54 C27.9 54 37.8 54 48 54 C48 59.28 48 64.56 48 70 C32.16 70 16.32 70 0 70 C0 46.9 0 23.8 0 0 Z " fill="#054D9E" transform="translate(602,306)"/>
<path d="M0 0 C5.94 0 11.88 0 18 0 C18 17.82 18 35.64 18 54 C27.57 54 37.14 54 47 54 C47.020625 56.454375 47.04125 58.90875 47.0625 61.4375 C47.071604 62.21150146 47.08070801 62.98550293 47.09008789 63.78295898 C47.09724913 65.52221717 47.05024702 67.26145304 47 69 C46 70 46 70 44.13340759 70.12025452 C43.31844315 70.11803391 42.5034787 70.11581329 41.66381836 70.11352539 C40.73001343 70.11340454 39.7962085 70.11328369 38.83410645 70.11315918 C37.35194641 70.10548523 37.35194641 70.10548523 35.83984375 70.09765625 C34.93657349 70.09664917 34.03330322 70.09564209 33.10266113 70.09460449 C29.71426126 70.08935512 26.32587941 70.07539398 22.9375 70.0625 C15.368125 70.041875 7.79875 70.02125 0 70 C0 46.9 0 23.8 0 0 Z " fill="#044DA0" transform="translate(551,306)"/>
</svg>
